<svg xmlns="http://www.w3.org/2000/svg" viewBox="0 0 64 64" width="64" height="64">
<defs>
<linearGradient id="hof" x1="0" y1="0" x2="0" y2="1"><stop offset="0" stop-color="#e6ddff"/><stop offset="0.28" stop-color="#b79cff"/><stop offset="0.5" stop-color="#d9ccff"/><stop offset="0.72" stop-color="#7c3aed"/><stop offset="1" stop-color="#4a1d96"/></linearGradient><linearGradient id="hofG" x1="0" y1="0" x2="0" y2="1"><stop offset="0" stop-color="#fff6d0"/><stop offset="0.5" stop-color="#ffd75e"/><stop offset="1" stop-color="#c9a227"/></linearGradient><linearGradient id="gem" x1="0" y1="0" x2="0" y2="1"><stop offset="0" stop-color="#ffffff"/><stop offset="0.5" stop-color="#d9ccff"/><stop offset="1" stop-color="#8b5cf6"/></linearGradient>
</defs>
<path d="M16 18 L21 7 L27 15 L32 6 L37 15 L43 7 L48 18 Z" fill="url(#hofG)" stroke="#4a3706" stroke-width="2" stroke-linejoin="round"/><circle cx="21" cy="6.5" r="1.8" fill="#ffd75e" stroke="#4a3706" stroke-width="1"/><circle cx="32" cy="5.5" r="1.8" fill="#ffd75e" stroke="#4a3706" stroke-width="1"/><circle cx="43" cy="6.5" r="1.8" fill="#ffd75e" stroke="#4a3706" stroke-width="1"/><path d="M32 19 C39 22 45 23.5 50 23.5 C50 37 48 48 32 58 C16 48 14 37 14 23.5 C19 23.5 25 22 32 19 Z" fill="url(#hof)" stroke="#2a1060" stroke-width="3" stroke-linejoin="round"/><path d="M32 23 C37.5 25.5 42.5 26.5 46.5 26.5 C46.5 37.5 44.8 45.5 32 53.5 C19.2 45.5 17.5 37.5 17.5 26.5 C21.5 26.5 26.5 25.5 32 23 Z" fill="none" stroke="#e6ddff" stroke-width="1.5" opacity="0.5"/><path d="M32 27 L39.5 33.5 L32 47 L24.5 33.5 Z" fill="url(#gem)" stroke="#2a1060" stroke-width="1.8" stroke-linejoin="round"/><path d="M24.5 33.5 L39.5 33.5 M32 27 L32 47" stroke="#ffffff" stroke-width="1.2" opacity="0.75"/><ellipse cx="25" cy="25" rx="7" ry="3.6" fill="#ffffff" opacity="0.35"/>
</svg>
