<svg xmlns="http://www.w3.org/2000/svg" width="920" height="180" viewBox="0 0 920 180" role="img" aria-label="My2KBuilder original visual asset">
  <defs>
    <linearGradient id="bgGlow" x1="0" y1="0" x2="1" y2="1">
      <stop offset="0" stop-color="#FFB03A" stop-opacity="0.26"/>
      <stop offset="0.48" stop-color="#070D1A" stop-opacity="0"/>
      <stop offset="1" stop-color="#34D0F7" stop-opacity="0.16"/>
    </linearGradient>
    <linearGradient id="metal" x1="0" y1="0" x2="1" y2="1">
      <stop offset="0" stop-color="#ffffff" stop-opacity="0.72"/>
      <stop offset="0.45" stop-color="#ffffff" stop-opacity="0.08"/>
      <stop offset="1" stop-color="#000000" stop-opacity="0.24"/>
    </linearGradient>
    
  </defs>
  <g transform="translate(20,10)"><rect width="160" height="160" rx="24" fill="#070D1A" stroke="#1E293B"/><path d="M80 14l52 22v48c0 36-22 56-52 68-30-12-52-32-52-68V36l52-22z" fill="#B87333" fill-opacity="0.22" stroke="#B87333" stroke-width="4"/><path d="M80 14l52 22v48c0 36-22 56-52 68-30-12-52-32-52-68V36l52-22z" fill="url(#metal)" opacity="0.34"/><text x="80" y="88" text-anchor="middle" font-family="DejaVu Sans, Arial, sans-serif" font-size="16" font-weight="700" fill="#D4E4FA">Bronze</text><text x="80" y="112" text-anchor="middle" font-family="DejaVu Sans, Arial, sans-serif" font-size="9" letter-spacing="1.4" fill="#94A3B8">ORIGINAL TIER MARK</text></g><g transform="translate(200,10)"><rect width="160" height="160" rx="24" fill="#070D1A" stroke="#1E293B"/><path d="M80 12l58 34v68l-58 34-58-34V46l58-34z" fill="#C0C7D1" fill-opacity="0.22" stroke="#C0C7D1" stroke-width="4"/><path d="M80 12l58 34v68l-58 34-58-34V46l58-34z" fill="url(#metal)" opacity="0.34"/><text x="80" y="88" text-anchor="middle" font-family="DejaVu Sans, Arial, sans-serif" font-size="16" font-weight="700" fill="#D4E4FA">Silver</text><text x="80" y="112" text-anchor="middle" font-family="DejaVu Sans, Arial, sans-serif" font-size="9" letter-spacing="1.4" fill="#94A3B8">ORIGINAL TIER MARK</text></g><g transform="translate(380,10)"><rect width="160" height="160" rx="24" fill="#070D1A" stroke="#1E293B"/><path d="M80 10l58 70-58 70-58-70 58-70z" fill="#F6C453" fill-opacity="0.22" stroke="#F6C453" stroke-width="4"/><path d="M80 10l58 70-58 70-58-70 58-70z" fill="url(#metal)" opacity="0.34"/><text x="80" y="88" text-anchor="middle" font-family="DejaVu Sans, Arial, sans-serif" font-size="16" font-weight="700" fill="#D4E4FA">Gold</text><text x="80" y="112" text-anchor="middle" font-family="DejaVu Sans, Arial, sans-serif" font-size="9" letter-spacing="1.4" fill="#94A3B8">ORIGINAL TIER MARK</text></g><g transform="translate(560,10)"><rect width="160" height="160" rx="24" fill="#070D1A" stroke="#1E293B"/><path d="M34 56l16-28 30 22 30-22 16 28v52H34V56z" fill="#B794F6" fill-opacity="0.22" stroke="#B794F6" stroke-width="4"/><path d="M34 56l16-28 30 22 30-22 16 28v52H34V56z" fill="url(#metal)" opacity="0.34"/><text x="80" y="88" text-anchor="middle" font-family="DejaVu Sans, Arial, sans-serif" font-size="16" font-weight="700" fill="#D4E4FA">Hall of Fame</text><text x="80" y="112" text-anchor="middle" font-family="DejaVu Sans, Arial, sans-serif" font-size="9" letter-spacing="1.4" fill="#94A3B8">ORIGINAL TIER MARK</text></g><g transform="translate(740,10)"><rect width="160" height="160" rx="24" fill="#070D1A" stroke="#1E293B"/><path d="M80 12l18 38 42 5-31 29 8 42-37-21-37 21 8-42-31-29 42-5 18-38z" fill="#67E8F9" fill-opacity="0.22" stroke="#67E8F9" stroke-width="4"/><path d="M80 12l18 38 42 5-31 29 8 42-37-21-37 21 8-42-31-29 42-5 18-38z" fill="url(#metal)" opacity="0.34"/><text x="80" y="88" text-anchor="middle" font-family="DejaVu Sans, Arial, sans-serif" font-size="16" font-weight="700" fill="#D4E4FA">Legend</text><text x="80" y="112" text-anchor="middle" font-family="DejaVu Sans, Arial, sans-serif" font-size="9" letter-spacing="1.4" fill="#94A3B8">ORIGINAL TIER MARK</text></g>
</svg>
